<svg xmlns="http://www.w3.org/2000/svg" viewBox="0 0 24 24"
     fill="none" stroke="#ea580c" stroke-width="2" stroke-linecap="round" stroke-linejoin="round">
  <!-- manches -->
  <rect x="2" y="8" width="4" height="4" rx="1"/>
  <rect x="18" y="8" width="4" height="4" rx="1"/>
  <!-- mains -->
  <path d="M6 10l3 3a2 2 0 0 0 2.8 0l3-3"/>
  <!-- doigts -->
  <path d="M10 12.5l1.5 1.5M11.5 11.8l1.4 1.4M12.8 11.2l1.3 1.3"/>
  <!-- poignets -->
  <path d="M6 10c.6-1.2 1.8-2 3.2-2H9.7c.7 0 1.4.3 1.9.8l.4.4.4-.4c.5-.5 1.2-.8 1.9-.8h.5c1.4 0 2.6.8 3.2 2"/>
</svg>